<svg width="274" height="257" viewBox="0 0 274 257" fill="none" xmlns="http://www.w3.org/2000/svg">
<ellipse cx="136.587" cy="128.355" rx="136.129" ry="127.867" transform="rotate(-0.205639 136.587 128.355)" fill="#232A2E"/>
<path d="M128 210C128 217.967 121.161 225 112 225C102.839 225 96 217.967 96 210C96 202.033 102.839 195 112 195C121.161 195 128 202.033 128 210Z" stroke="white" stroke-width="16"/>
<path d="M128 128C128 135.967 121.161 143 112 143C102.839 143 96 135.967 96 128C96 120.033 102.839 113 112 113C121.161 113 128 120.033 128 128Z" stroke="white" stroke-width="16"/>
<path d="M120 142H103V196H120V142Z" fill="white"/>
<path d="M127 39C127 46.967 120.161 54 111 54C101.839 54 95 46.967 95 39C95 31.033 101.839 24 111 24C120.161 24 127 31.033 127 39Z" stroke="white" stroke-width="16"/>
<path d="M120 54H103V108H120V54Z" fill="white"/>
<path d="M182 134V119H133V134H182Z" fill="white"/>
<path d="M182 134C200.215 129.538 214 109.516 214 84.3909C214 59.2659 200.215 38.462 182 34V50C184.954 51.4595 187.889 53.6485 190.58 57.1695C195.516 63.6276 199 73.202 199 84.3909C199 95.5799 195.516 105.154 190.58 111.612C187.889 115.133 184.954 117.541 182 119V134Z" fill="white"/>
<path d="M180 34H164C160.134 34 157 37.134 157 41V43C157 46.866 160.134 50 164 50H180C183.866 50 187 46.866 187 43V41C187 37.134 183.866 34 180 34Z" fill="white"/>
<path d="M173.112 27.4853L164.627 19L142 41.6274L150.485 50.1127L173.112 27.4853Z" fill="white"/>
<path d="M173.198 56.4903L164.764 65.0267L142 42.5364L150.434 34L173.198 56.4903Z" fill="white"/>
</svg>
