<svg enable-background="new 0 0 48.2 48" viewBox="0 0 48.2 48" xmlns="http://www.w3.org/2000/svg"><circle cx="23.9" cy="23.9" fill="#4AA4E0" r="22.9"/><path d="m36.1 13.9c0-3-2.5-5.5-5.5-5.5-2.5 0-4.6 1.7-5.3 3.9h-2.6c-.7-2.3-2.8-3.9-5.3-3.9-3 0-5.5 2.5-5.5 5.5 0 2.5 1.7 4.6 3.9 5.3v9.5c-2.3.7-3.9 2.8-3.9 5.3 0 3 2.5 5.5 5.5 5.5s5.5-2.5 5.5-5.5c0-2.5-1.7-4.6-3.9-5.3v-1.1h9c2.3 0 4.1-1.8 4.1-4.1v-4.2c2.3-.8 4-2.9 4-5.4zm-21.1 0c0-1.3 1.1-2.4 2.4-2.4s2.4 1.1 2.4 2.4-1.1 2.4-2.4 2.4c-1.4 0-2.4-1.1-2.4-2.4zm4.7 20.1c0 1.3-1.1 2.4-2.4 2.4-1.3-.1-2.3-1.1-2.3-2.4s1.1-2.4 2.4-2.4c1.2 0 2.3 1.1 2.3 2.4zm8.3-9.6h-9.1v-5.2c1.8-.5 3.2-1.9 3.7-3.7h2.6c.5 1.8 1.9 3.2 3.7 3.7v4.2c.1.6-.4 1-.9 1zm2.5-8.1c-1.3 0-2.4-1.1-2.4-2.4s1.1-2.4 2.4-2.4 2.4 1.1 2.4 2.4-1 2.4-2.4 2.4z" fill="#fff"/></svg>